<?xml version="1.0" encoding="UTF-8" standalone="no"?><!-- Generator: Gravit.io --><svg xmlns="http://www.w3.org/2000/svg" xmlns:xlink="http://www.w3.org/1999/xlink" style="isolation:isolate" viewBox="0 0 512 512" width="512pt" height="512pt"><defs><clipPath id="_clipPath_Ph0O1ZjXwHiVuCt1PqWwlZRtEunqDHOV"><rect width="512" height="512"/></clipPath></defs><g clip-path="url(#_clipPath_Ph0O1ZjXwHiVuCt1PqWwlZRtEunqDHOV)"><linearGradient id="_lgradient_1" x1="0" y1="0" x2="1.008403361344538" y2="1.0084033613445378" gradientTransform="matrix(512,0,0,512,0,0)" gradientUnits="userSpaceOnUse"><stop offset="0%" stop-opacity="1" style="stop-color:rgb(66,235,174)"/><stop offset="51.66666666666667%" stop-opacity="1" style="stop-color:rgb(31,166,255)"/><stop offset="99.16666666666667%" stop-opacity="1" style="stop-color:rgb(255,0,245)"/></linearGradient><path d=" M 82.092 68.205 C 127.766 25.884 188.884 0 256 0 C 323.084 0 384.176 25.859 429.843 68.145 L 429.843 68.145 L 495.09 2.898 C 498.935 -0.947 505.168 -0.958 509 2.874 L 509 2.874 C 512.832 6.706 512.822 12.939 508.976 16.784 L 443.734 82.026 C 486.092 127.708 512 188.852 512 256 C 512 323.116 486.116 384.234 443.795 429.908 L 508.976 495.09 C 512.822 498.935 512.832 505.168 509 509 L 509 509 C 505.168 512.832 498.935 512.822 495.09 508.976 L 429.908 443.795 C 384.234 486.116 323.116 512 256 512 C 188.852 512 127.708 486.092 82.026 443.734 L 16.784 508.976 C 12.939 512.822 6.706 512.832 2.874 509 L 2.874 509 C -0.958 505.168 -0.947 498.935 2.898 495.09 L 68.145 429.843 C 25.859 384.176 0 323.084 0 256 L 0 256 C 0 188.884 25.884 127.766 68.205 82.092 L 2.898 16.784 C -0.947 12.939 -0.958 6.706 2.874 2.874 L 2.874 2.874 C 6.706 -0.958 12.939 -0.947 16.784 2.898 L 82.092 68.205 Z  M 92.704 78.818 C 135.656 39.208 193.023 15 256 15 C 318.945 15 376.285 39.183 419.23 78.757 L 419.23 78.757 L 255.937 242.05 L 92.704 78.818 Z  M 78.818 92.704 C 39.208 135.656 15 193.023 15 256 L 15 256 C 15 318.945 39.183 376.285 78.757 419.23 L 242.05 255.937 L 78.818 92.704 Z  M 433.182 419.296 C 472.792 376.344 497 318.977 497 256 C 497 192.991 472.768 135.598 433.122 92.639 L 433.122 92.639 L 269.824 255.937 L 433.182 419.296 Z  M 419.296 433.182 C 376.344 472.792 318.977 497 256 497 C 192.991 497 135.598 472.768 92.639 433.122 L 255.937 269.824 L 419.296 433.182 Z " fill-rule="evenodd" fill="url(#_lgradient_1)"/></g></svg>